<svg width="697" height="102" viewBox="0 0 697 102" fill="none" xmlns="http://www.w3.org/2000/svg">
<path d="M0.25 0H67C83.9828 0 97.75 13.7672 97.75 30.75C97.75 47.7328 83.9828 61.5 67 61.5H49.75V102H25.75C12.4952 102 1.75 91.2548 1.75 78C1.75 64.7452 12.4952 54 25.75 54H43.7134L28.9238 35.625H55.3574V47.1421L83.7498 30.7498L55.3574 14.3574V25.875H21.0762L0.25 0Z" fill="#0358F1"/>
<path d="M121.718 13.36H145.43C153.942 13.36 160.438 15.216 164.918 18.928C169.398 22.576 171.638 28.016 171.638 35.248V35.632C171.638 42.736 169.302 48.112 164.63 51.76C160.15 55.28 153.91 57.04 145.91 57.04H137.174V82H121.718V13.36ZM145.046 46.192C152.79 46.192 156.662 42.704 156.662 35.728V35.344C156.662 28.56 152.79 25.168 145.046 25.168H137.174V46.192H145.046Z" fill="#1C1563"/>
<path d="M177.849 31.792H191.769V41.392C194.969 34.544 200.377 31.088 207.993 31.024V43.984C202.617 43.92 198.553 44.88 195.801 46.864C193.113 48.848 191.769 52.176 191.769 56.848V82H177.849V31.792Z" fill="#1C1563"/>
<path d="M236.902 72.496C240.806 72.496 243.814 71.152 245.926 68.464C248.102 65.776 249.189 62.032 249.189 57.232V56.56C249.189 51.76 248.102 48.016 245.926 45.328C243.814 42.576 240.806 41.2 236.902 41.2C233.062 41.2 230.054 42.544 227.878 45.232C225.702 47.856 224.613 51.568 224.613 56.368V57.136C224.613 62 225.669 65.776 227.781 68.464C229.893 71.152 232.934 72.496 236.902 72.496ZM236.805 83.056C229.125 83.056 222.854 80.72 217.99 76.048C212.934 71.376 210.406 65.168 210.406 57.424V56.656C210.406 48.912 212.934 42.608 217.99 37.744C222.918 33.008 229.222 30.64 236.902 30.64C244.646 30.64 250.95 32.976 255.814 37.648C260.806 42.512 263.302 48.752 263.302 56.368V57.136C263.302 64.88 260.773 71.184 255.717 76.048C250.853 80.72 244.549 83.056 236.805 83.056Z" fill="#1C1563"/>
<path d="M269.919 31.792H283.839V39.472C285.247 36.912 287.263 34.8 289.887 33.136C292.511 31.472 295.615 30.64 299.199 30.64C306.239 30.64 310.911 33.552 313.215 39.376C317.119 33.552 322.751 30.64 330.111 30.64C334.975 30.64 338.911 32.144 341.919 35.152C345.055 38.48 346.623 43.376 346.623 49.84V82H332.799V51.376C332.799 45.168 330.175 42.064 324.927 42.064C322.111 42.064 319.775 42.96 317.919 44.752C316.127 46.48 315.231 49.008 315.231 52.336V82H301.407V51.376C301.407 45.168 298.783 42.064 293.535 42.064C290.719 42.064 288.383 42.96 286.527 44.752C284.735 46.48 283.839 49.008 283.839 52.336V82H269.919V31.792Z" fill="#1C1563"/>
<path d="M355.797 31.792H369.717V39.664C371.189 37.04 373.334 34.896 376.15 33.232C379.03 31.504 382.23 30.64 385.75 30.64C392.086 30.64 397.27 32.848 401.302 37.264C405.526 41.872 407.638 48.24 407.638 56.368V57.136C407.638 65.2 405.557 71.568 401.397 76.24C397.429 80.784 392.214 83.056 385.75 83.056C382.038 83.056 378.773 82.256 375.957 80.656C373.141 78.992 371.061 76.88 369.717 74.32V99.088H355.797V31.792ZM381.621 72.208C385.461 72.208 388.405 70.96 390.453 68.464C392.501 65.904 393.526 62.16 393.526 57.232V56.464C393.526 51.472 392.438 47.696 390.262 45.136C388.086 42.576 385.174 41.296 381.526 41.296C377.75 41.296 374.741 42.608 372.501 45.232C370.325 47.792 369.237 51.536 369.237 56.464V57.232C369.237 62.16 370.325 65.904 372.501 68.464C374.677 70.96 377.717 72.208 381.621 72.208Z" fill="#1C1563"/>
<path d="M432.637 82.96C421.821 82.96 416.413 77.68 416.413 67.12V41.68H409.981V31.792H416.413V20.944H430.237V31.792H440.797V41.68H430.237V65.872C430.237 69.84 432.093 71.824 435.805 71.824C437.853 71.824 439.613 71.504 441.085 70.864V81.616C438.525 82.512 435.709 82.96 432.637 82.96Z" fill="#1C1563"/>
<path d="M464.478 83.056C459.358 83.056 455.294 81.552 452.286 78.544C449.022 75.28 447.39 70.48 447.39 64.144V31.792H461.214V62.224C461.214 68.944 464.126 72.304 469.95 72.304C473.022 72.304 475.518 71.376 477.438 69.52C479.422 67.6 480.414 64.848 480.414 61.264V31.792H494.238V82H480.414V74.128C477.406 80.08 472.094 83.056 464.478 83.056Z" fill="#1C1563"/>
<path d="M522.08 83.056C515.296 83.056 510.016 81.616 506.24 78.736C502.464 75.856 500.448 71.696 500.192 66.256H513.152C513.536 68.688 514.368 70.48 515.648 71.632C516.928 72.784 519.04 73.36 521.984 73.36C527.232 73.36 529.856 71.536 529.856 67.888C529.856 66.16 529.088 64.88 527.552 64.048C526.016 63.152 523.392 62.448 519.68 61.936C512.896 60.848 508.16 59.216 505.472 57.04C502.592 54.8 501.152 51.216 501.152 46.288C501.152 41.36 503.2 37.424 507.296 34.48C510.816 31.92 515.392 30.64 521.024 30.64C526.848 30.64 531.552 31.792 535.136 34.096C538.912 36.656 541.12 40.688 541.76 46.192H528.992C528.608 44.08 527.808 42.544 526.592 41.584C525.376 40.624 523.552 40.144 521.12 40.144C518.88 40.144 517.12 40.624 515.84 41.584C514.624 42.544 514.016 43.792 514.016 45.328C514.016 46.928 514.688 48.112 516.032 48.88C517.44 49.648 520 50.288 523.712 50.8C530.304 51.696 535.136 53.2 538.208 55.312C541.536 57.808 543.2 61.552 543.2 66.544C543.2 71.92 541.344 76.016 537.632 78.832C533.984 81.648 528.8 83.056 522.08 83.056Z" fill="#1C1563"/>
<path d="M551.232 31.792H559.201V40.24C560.673 37.68 562.976 35.504 566.112 33.712C569.248 31.856 572.609 30.928 576.193 30.928C582.913 30.928 588.385 33.2 592.609 37.744C596.897 42.288 599.041 48.432 599.041 56.176V56.944C599.041 64.688 596.929 70.96 592.705 75.76C588.545 80.496 583.041 82.864 576.193 82.864C568.513 82.864 562.849 79.824 559.201 73.744V99.472H551.232V31.792ZM575.424 76.24C580.417 76.24 584.225 74.64 586.849 71.44C589.473 68.176 590.784 63.472 590.784 57.328V56.56C590.784 50.48 589.313 45.808 586.369 42.544C583.489 39.216 579.808 37.552 575.328 37.552C570.464 37.552 566.497 39.184 563.424 42.448C560.416 45.648 558.912 50.352 558.912 56.56V57.328C558.912 63.536 560.384 68.24 563.328 71.44C566.336 74.64 570.368 76.24 575.424 76.24Z" fill="#1C1563"/>
<path d="M621.281 82.864C616.353 82.864 612.321 81.648 609.185 79.216C606.113 76.72 604.577 73.008 604.577 68.08C604.577 65.328 605.249 62.928 606.593 60.88C608.001 58.768 609.921 57.136 612.353 55.984C614.785 54.768 617.441 53.904 620.321 53.392C623.201 52.816 626.337 52.528 629.729 52.528H636.929V48.88C636.929 44.848 636.097 41.968 634.433 40.24C632.769 38.448 630.017 37.552 626.177 37.552C619.265 37.552 615.425 40.56 614.657 46.576H606.689C607.201 41.2 609.281 37.264 612.929 34.768C616.641 32.208 621.185 30.928 626.561 30.928C638.785 30.928 644.897 36.912 644.897 48.88V82H636.929V75.664C633.089 80.464 627.873 82.864 621.281 82.864ZM622.049 76.528C626.401 76.528 629.953 75.472 632.705 73.36C635.521 71.184 636.929 68.208 636.929 64.432V58.192H630.017C618.369 58.192 612.545 61.488 612.545 68.08C612.545 73.712 615.713 76.528 622.049 76.528Z" fill="#1C1563"/>
<path d="M670.443 76.816L650.763 31.792H659.307L674.667 67.792L688.587 31.792H696.747L669.003 99.472H660.939L670.443 76.816Z" fill="#1C1563"/>
</svg>
